<svg xmlns="http://www.w3.org/2000/svg" viewBox="0 0 200 200" width="200" height="200">
    <!-- Gambar Akar -->
    <path d="M100,50 Q80,60 70,80 Q60,100 50,120 Q40,140 50,160 Q60,160 70,140 Q80,160 100,150 Q120,160 130,140 Q140,160 150,160 Q160,140 150,120 Q140,100 130,80 Q120,60 100,50"
        fill="saddlebrown" stroke="black" stroke-width="3"/>

    <!-- Gambar Akar Tambahan (di bawah) -->
    <path d="M100,150 C90,170 90,180 100,190 C110,180 110,170 100,150"
        fill="saddlebrown" stroke="black" stroke-width="3"/>

    <!-- Daun -->
    <path d="M50,60 Q40,40 60,30 Q80,20 100,40 Q120,30 140,50 Q120,60 100,60 Q80,70 60,60 Q50,60 50,60"
        fill="green" stroke="black" stroke-width="3"/>
</svg>
